<mxfile host="app.diagrams.net" agent="Mozilla/5.0 (Macintosh; Intel Mac OS X 10_15_7) AppleWebKit/537.36 (KHTML, like Gecko) Chrome/141.0.0.0 Safari/537.36" version="28.2.8">
  <diagram id="DomainModelIter2" name="Iteration 2 Domain Model">
    <mxGraphModel dx="2009" dy="1338" grid="1" gridSize="10" guides="1" tooltips="1" connect="1" arrows="1" fold="1" page="1" pageScale="1" pageWidth="2400" pageHeight="1400" math="0" shadow="0">
      <root>
        <mxCell id="0" />
        <mxCell id="1" parent="0" />
        <mxCell id="3" value="&lt;b&gt;RouteCatalogue&lt;/b&gt;&lt;hr/&gt;" style="shape=rect;whiteSpace=wrap;html=1;rounded=1;strokeWidth=2;" parent="1" vertex="1">
          <mxGeometry x="220" y="180" width="260" height="80" as="geometry" />
        </mxCell>
        <mxCell id="4" value="&lt;b&gt;Route&lt;/b&gt;&lt;hr/&gt;departureTime&lt;br/&gt;arrivalTime&lt;br/&gt;trainType&lt;br/&gt;firstClassRate&lt;br/&gt;secondClassRate&lt;br/&gt;daysOfOperation" style="shape=rect;whiteSpace=wrap;html=1;rounded=1;strokeWidth=2;" parent="1" vertex="1">
          <mxGeometry x="560" y="140" width="360" height="160" as="geometry" />
        </mxCell>
        <mxCell id="5" value="&lt;b&gt;Station&lt;/b&gt;&lt;hr/&gt;name&lt;br/&gt;city&lt;br/&gt;country" style="shape=rect;whiteSpace=wrap;html=1;rounded=1;strokeWidth=2;" parent="1" vertex="1">
          <mxGeometry x="980" y="160" width="260" height="120" as="geometry" />
        </mxCell>
        <mxCell id="6" value="&lt;b&gt;Connection&lt;/b&gt;&lt;hr/&gt;/totalDuration&lt;br/&gt;/totalCost" style="shape=rect;whiteSpace=wrap;html=1;rounded=1;strokeWidth=2;" parent="1" vertex="1">
          <mxGeometry x="580" y="400" width="320" height="120" as="geometry" />
        </mxCell>
        <mxCell id="7" value="&lt;b&gt;Client&lt;/b&gt;&lt;hr/&gt;id&lt;br/&gt;firstName&lt;br/&gt;lastName&lt;br/&gt;age" style="shape=rect;whiteSpace=wrap;html=1;rounded=1;strokeWidth=2;" parent="1" vertex="1">
          <mxGeometry x="1290" y="160" width="260" height="120" as="geometry" />
        </mxCell>
        <mxCell id="8" value="&lt;b&gt;Trip&lt;/b&gt;&lt;hr/&gt;tripId&lt;br/&gt;bookingDate&lt;br/&gt;/isCurrent" style="shape=rect;whiteSpace=wrap;html=1;rounded=1;strokeWidth=2;" parent="1" vertex="1">
          <mxGeometry x="1060" y="400" width="260" height="120" as="geometry" />
        </mxCell>
        <mxCell id="9" value="&lt;b&gt;Reservation&lt;/b&gt;&lt;hr/&gt;travellerName&lt;br/&gt;travellerId&lt;br/&gt;classType" style="shape=rect;whiteSpace=wrap;html=1;rounded=1;strokeWidth=2;" parent="1" vertex="1">
          <mxGeometry x="1460" y="400" width="280" height="120" as="geometry" />
        </mxCell>
        <mxCell id="10" value="&lt;b&gt;Ticket&lt;/b&gt;&lt;hr/&gt;ticketId&lt;br/&gt;issuedAt" style="shape=rect;whiteSpace=wrap;html=1;rounded=1;strokeWidth=2;" parent="1" vertex="1">
          <mxGeometry x="1490" y="590" width="220" height="100" as="geometry" />
        </mxCell>
        <mxCell id="11" value="" style="endArrow=block;endFill=0;startArrow=diamond;startFill=0;html=1;strokeWidth=1.5;" parent="1" source="3" target="4" edge="1">
          <mxGeometry relative="1" as="geometry" />
        </mxCell>
        <mxCell id="13" value="1..*" style="text;html=1;strokeColor=none;fillColor=none;align=center;verticalAlign=middle;" parent="1" vertex="1">
          <mxGeometry x="720" y="220" width="40" height="20" as="geometry" />
        </mxCell>
        <mxCell id="14" value="" style="endArrow=block;endFill=0;startArrow=diamond;startFill=1;html=1;strokeWidth=1.5;" parent="1" source="6" target="4" edge="1">
          <mxGeometry relative="1" as="geometry" />
        </mxCell>
        <mxCell id="15" value="1" style="text;html=1;strokeColor=none;fillColor=none;align=center;verticalAlign=middle;" parent="1" vertex="1">
          <mxGeometry x="740" y="380" width="40" height="20" as="geometry" />
        </mxCell>
        <mxCell id="16" value="1..3" style="text;html=1;strokeColor=none;fillColor=none;align=center;verticalAlign=middle;" parent="1" vertex="1">
          <mxGeometry x="740" y="300" width="40" height="20" as="geometry" />
        </mxCell>
        <mxCell id="17" value="" style="endArrow=none;html=1;strokeWidth=1.3;" parent="1" source="4" target="5" edge="1">
          <mxGeometry relative="1" as="geometry" />
        </mxCell>
        <mxCell id="20" value="" style="endArrow=none;html=1;strokeWidth=1.3;" parent="1" source="4" target="5" edge="1">
          <mxGeometry relative="1" as="geometry" />
        </mxCell>
        <mxCell id="21" value="1" style="text;html=1;strokeColor=none;fillColor=none;align=center;verticalAlign=middle;" parent="1" vertex="1">
          <mxGeometry x="930" y="210" width="40" height="20" as="geometry" />
        </mxCell>
        <mxCell id="23" value="" style="endArrow=block;html=1;strokeWidth=1.3;" parent="1" source="7" target="8" edge="1">
          <mxGeometry relative="1" as="geometry" />
        </mxCell>
        <mxCell id="24" value="1" style="text;html=1;strokeColor=none;fillColor=none;align=center;verticalAlign=middle;" parent="1" vertex="1">
          <mxGeometry x="1350" y="290" width="40" height="20" as="geometry" />
        </mxCell>
        <mxCell id="25" value="0..*" style="text;html=1;strokeColor=none;fillColor=none;align=center;verticalAlign=middle;" parent="1" vertex="1">
          <mxGeometry x="1420" y="430" width="50" height="20" as="geometry" />
        </mxCell>
        <mxCell id="26" value="" style="endArrow=block;endFill=0;startArrow=diamond;startFill=1;html=1;strokeWidth=1.5;" parent="1" source="8" target="9" edge="1">
          <mxGeometry relative="1" as="geometry" />
        </mxCell>
        <mxCell id="27" value="1..*" style="text;html=1;strokeColor=none;fillColor=none;align=center;verticalAlign=middle;" parent="1" vertex="1">
          <mxGeometry x="1310" y="430" width="50" height="20" as="geometry" />
        </mxCell>
        <mxCell id="28" value="" style="endArrow=block;html=1;strokeWidth=1.3;" parent="1" source="9" target="10" edge="1">
          <mxGeometry relative="1" as="geometry" />
        </mxCell>
        <mxCell id="31" value="" style="endArrow=block;html=1;strokeWidth=1.3;" parent="1" source="8" target="6" edge="1">
          <mxGeometry relative="1" as="geometry" />
        </mxCell>
        <mxCell id="32" value="1" style="text;html=1;strokeColor=none;fillColor=none;align=center;verticalAlign=middle;" parent="1" vertex="1">
          <mxGeometry x="1200" y="380" width="40" height="20" as="geometry" />
        </mxCell>
      </root>
    </mxGraphModel>
  </diagram>
</mxfile>
